<?xml version="1.0" standalone="no"?>
<!DOCTYPE svg PUBLIC "-//W3C//DTD SVG 20010904//EN"
 "http://www.w3.org/TR/2001/REC-SVG-20010904/DTD/svg10.dtd">
<svg version="1.0" xmlns="http://www.w3.org/2000/svg"
 width="1136.000000pt" height="391.000000pt" viewBox="0 0 1136.000000 391.000000"
 preserveAspectRatio="xMidYMid meet">

<g transform="translate(0.000000,391.000000) scale(0.100000,-0.100000)"
fill="#000000" stroke="none">
<path d="M2098 3405 c-1 -1 -43 -6 -93 -10 -49 -3 -108 -10 -130 -15 -22 -5
-60 -11 -85 -15 -76 -10 -297 -74 -382 -110 -178 -75 -316 -185 -369 -291 -24
-49 -24 -52 -24 -354 l0 -305 29 -57 c28 -56 97 -130 164 -177 l32 -22 0 -114
0 -113 -37 -13 c-112 -36 -263 -129 -336 -208 -91 -97 -92 -101 -92 -451 l0
-305 29 -57 c72 -142 269 -266 544 -343 141 -39 158 -43 217 -51 22 -3 47 -8
55 -11 70 -24 585 -38 735 -19 22 3 63 8 90 11 91 11 249 47 350 80 196 65
230 81 341 156 81 54 134 111 172 184 25 47 26 60 30 212 4 156 5 163 26 169
47 14 155 69 219 111 88 57 161 133 192 200 25 51 25 53 25 355 0 303 0 304
-25 354 -27 55 -77 112 -147 168 l-47 37 -3 257 c-3 247 -4 259 -27 305 -28
57 -99 138 -156 177 -54 37 -211 120 -227 120 -7 0 -26 7 -43 16 -36 19 -142
48 -288 80 -107 23 -136 27 -287 44 -70 7 -444 12 -452 5z m421 -149 c25 -3
89 -10 141 -16 52 -6 124 -18 160 -26 36 -9 72 -17 80 -19 8 -2 53 -16 100
-31 47 -15 90 -28 96 -30 24 -4 141 -67 205 -110 162 -107 170 -223 24 -333
-64 -48 -148 -95 -219 -121 -30 -12 -57 -21 -58 -20 -2 0 -36 -11 -75 -24 -40
-14 -112 -32 -160 -41 -49 -9 -98 -19 -110 -21 -176 -33 -543 -37 -763 -8
-137 18 -411 86 -455 113 -5 3 -13 6 -16 6 -20 0 -169 87 -212 124 -118 99
-127 180 -31 275 142 140 485 254 849 281 50 4 91 8 92 9 4 3 311 -3 352 -8z
m-1313 -702 l34 -26 0 -147 0 -146 -35 35 c-47 48 -54 87 -47 273 1 20 5 37 8
37 3 0 21 -12 40 -26z m2222 -106 c-3 -130 -4 -134 -33 -172 l-30 -40 -3 149
-3 149 28 23 c15 12 32 22 36 23 5 0 7 -60 5 -132z m-1998 -170 c0 -87 -2
-158 -5 -158 -2 0 -25 10 -50 22 l-45 22 0 157 0 158 50 -22 50 -22 0 -157z
m1830 43 l0 -159 -43 -21 c-24 -12 -46 -21 -50 -21 -4 0 -7 71 -7 158 l0 157
43 22 c23 11 45 22 50 22 4 1 7 -71 7 -158z m-1685 65 l40 -14 3 -166 c3 -178
5 -169 -45 -149 -10 3 -22 7 -28 7 -9 1 -21 336 -13 336 2 0 21 -7 43 -14z
m1490 -150 c0 -173 2 -167 -62 -181 l-33 -7 0 165 0 165 38 10 c20 5 41 9 46
8 6 -1 10 -70 11 -160z m-1282 100 l27 -6 0 -166 0 -165 -37 7 c-21 4 -41 9
-45 11 -5 2 -8 78 -8 169 0 153 1 165 18 161 9 -3 29 -8 45 -11z m1084 -322
c-1 -2 -22 -6 -45 -10 l-42 -7 2 169 3 168 35 4 c19 2 37 6 40 9 3 2 6 -71 8
-163 1 -92 1 -168 -1 -170z m-865 288 c10 2 14 -37 16 -169 2 -159 1 -171 -15
-168 -10 2 -35 7 -55 10 l-38 6 0 168 0 169 40 -9 c22 -5 45 -8 52 -7z m678
-157 c0 -140 -2 -165 -15 -165 -8 0 -18 -1 -22 -2 -5 -1 -23 -5 -40 -9 l-33
-7 0 167 c0 92 3 171 7 174 3 4 28 7 55 7 l48 0 0 -165z m-430 -25 l0 -168
-47 3 c-27 2 -56 4 -65 4 -16 1 -18 16 -18 164 0 90 2 166 4 168 2 2 32 2 65
1 l61 -4 0 -168z m220 5 c0 -125 -3 -165 -12 -166 -20 -2 -50 -2 -85 -1 l-33
2 0 165 0 165 65 0 65 0 0 -165z m1138 61 c45 -51 60 -107 40 -149 -75 -158
-384 -298 -763 -346 -44 -6 -102 -13 -129 -17 -125 -16 -482 -6 -615 17 -31 6
-83 14 -116 19 -33 5 -84 17 -114 26 -30 9 -64 18 -75 20 -22 4 -61 18 -111
39 -16 7 -48 21 -70 30 -48 19 -188 105 -182 111 3 3 34 -6 71 -20 36 -14 66
-23 66 -21 0 3 12 0 26 -5 47 -18 242 -55 359 -67 89 -10 497 -10 590 -1 308
32 544 103 781 236 38 21 132 111 154 148 25 39 38 36 88 -20z m-2148 -569 l0
-150 -21 19 c-47 43 -59 85 -59 214 l0 120 40 -26 40 -27 0 -150z m2181 -74
c-10 -21 -28 -47 -40 -57 l-21 -19 0 150 0 150 38 27 37 26 3 -120 c2 -102 0
-125 -17 -157z m-163 -74 l-3 -80 -42 -19 -43 -19 0 158 0 157 43 21 42 20 3
-78 c2 -44 2 -115 0 -160z m-1857 214 l29 -17 0 -159 c0 -87 -3 -156 -7 -154
-5 2 -25 11 -45 21 l-38 17 0 154 c0 171 1 173 61 138z m-381 -85 c0 -79 33
-149 105 -220 54 -55 152 -122 225 -155 94 -42 158 -68 200 -78 3 -1 12 -4 20
-8 35 -14 187 -47 284 -62 21 -4 48 -9 60 -11 11 -2 50 -7 86 -10 36 -3 83 -7
105 -9 22 -2 94 -4 160 -5 132 -1 131 -11 -3 -30 -43 -6 -89 -12 -102 -15 -34
-7 -244 -18 -335 -19 -171 0 -331 16 -525 54 -202 39 -423 134 -519 223 -115
105 -108 196 23 296 52 40 181 110 204 111 8 0 12 -19 12 -62z m567 16 l43
-17 0 -163 0 -163 -32 11 c-18 5 -41 12 -50 15 -16 5 -18 22 -18 169 0 90 3
164 7 164 4 0 27 -7 50 -16z m1483 -147 l0 -164 -39 -11 c-64 -20 -62 -27 -59
150 l3 161 40 13 c22 6 43 12 48 13 4 1 7 -73 7 -162z m-1282 98 l32 -7 0
-164 c0 -179 3 -172 -62 -153 l-38 10 0 165 c0 153 1 165 18 160 9 -2 32 -7
50 -11z m1092 -149 c0 -180 4 -171 -67 -182 l-33 -5 2 167 3 168 35 4 c19 2
37 6 39 8 17 16 21 -16 21 -160z m-881 118 l31 -6 0 -164 c0 -183 6 -170 -72
-158 l-38 7 0 163 0 164 24 0 c13 0 38 -3 55 -6z m686 -156 l-2 -163 -29 -6
c-16 -4 -41 -7 -56 -8 l-28 -1 0 164 c0 181 -4 171 71 175 l45 2 -1 -163z
m-484 142 l49 0 0 -165 c0 -176 3 -167 -50 -167 -11 0 -33 0 -50 1 l-30 1 0
171 c0 152 2 170 16 165 9 -3 38 -6 65 -6z m277 -163 l2 -167 -32 -1 c-18 0
-48 -2 -65 -3 l-33 -2 0 167 0 168 53 4 c28 1 57 2 62 2 6 -1 11 -67 13 -168z
m-1723 -269 c19 -16 20 -28 18 -160 -1 -79 -2 -144 -2 -146 -2 -6 -48 52 -60
75 -6 13 -11 72 -11 149 0 139 -5 132 55 82z m2215 -88 c0 -130 -7 -155 -54
-199 l-26 -24 0 146 0 146 33 25 c17 14 35 26 40 26 4 0 7 -54 7 -120z m-2002
-179 c1 -89 0 -161 -2 -161 -3 0 -26 10 -51 22 l-45 22 0 157 0 157 48 -18 47
-18 3 -161z m1830 42 l-3 -157 -40 -23 c-22 -12 -43 -23 -47 -23 -5 0 -8 72
-8 160 l0 159 43 20 c23 11 45 20 50 20 4 1 6 -70 5 -156z m-1638 -110 c0
-180 2 -177 -65 -149 l-35 15 0 164 0 164 50 -16 50 -15 0 -163z m1443 30 c-1
-87 -2 -161 -2 -164 -1 -5 -70 -29 -85 -29 -4 0 -5 73 -4 162 l3 161 35 13
c19 7 40 13 45 13 6 1 9 -57 8 -156z m-1280 93 l27 -6 0 -166 0 -167 -32 8
c-18 4 -39 7 -45 8 -10 0 -13 41 -13 169 0 156 1 169 18 165 9 -3 29 -8 45
-11z m1087 -154 c0 -167 0 -168 -22 -169 -13 -1 -33 -5 -46 -8 l-22 -6 2 168
3 168 35 6 c19 4 38 7 43 8 4 0 7 -75 7 -167z m-891 126 l41 -1 0 -169 0 -170
-37 6 c-21 3 -46 5 -55 6 -16 0 -18 15 -18 163 0 156 3 182 20 172 5 -3 27 -6
49 -7z m701 -158 c0 -155 -2 -170 -17 -171 -10 0 -35 -2 -55 -5 l-38 -5 0 171
c0 94 3 169 8 167 4 -3 25 -1 47 3 22 4 43 8 48 9 4 0 7 -75 7 -169z m-447
141 c15 -1 17 -16 17 -165 0 -91 -3 -166 -7 -169 -5 -2 -34 -1 -65 1 l-58 4 0
163 c0 99 4 165 10 167 5 2 27 2 47 1 21 -1 46 -2 56 -2z m228 -1 c5 0 9 -71
9 -165 l0 -165 -47 -1 c-27 0 -56 -2 -65 -4 -17 -3 -18 10 -18 165 l0 169 43
4 c23 2 48 2 55 0 8 -2 18 -3 23 -3z"/>
<path d="M4595 2412 c-208 -72 -328 -265 -295 -474 45 -291 368 -450 644 -318
65 31 146 94 146 114 0 14 -121 136 -136 136 -6 0 -21 -12 -35 -26 -108 -116
-307 -85 -381 60 -27 53 -29 146 -4 196 79 154 253 180 391 58 l36 -31 72 71
71 71 -24 27 c-41 44 -109 86 -179 110 -84 30 -229 33 -306 6z"/>
<path d="M5170 2000 l0 -420 110 0 110 0 0 155 0 155 69 0 69 0 80 -152 79
-153 117 -3 c83 -2 116 1 116 9 0 6 -39 82 -86 167 l-86 156 23 15 c154 98
170 322 31 428 -74 56 -117 63 -389 63 l-243 0 0 -420z m455 226 c59 -25 73
-84 31 -133 -24 -27 -27 -28 -145 -31 l-121 -4 0 91 0 91 100 0 c64 0 113 -5
135 -14z"/>
<path d="M5990 2000 l0 -420 335 0 335 0 0 95 0 95 -225 0 -225 0 0 75 0 75
145 0 145 0 0 90 0 90 -145 0 -145 0 0 70 0 70 220 0 220 0 0 90 0 90 -330 0
-330 0 0 -420z"/>
<path d="M6760 2000 l0 -420 158 0 c86 0 194 4 240 10 249 28 410 226 381 468
-19 163 -146 303 -314 347 -44 11 -112 15 -262 15 l-203 0 0 -420z m425 211
c117 -54 169 -192 116 -306 -39 -85 -110 -125 -238 -133 l-83 -5 0 232 0 231
83 0 c58 0 94 -6 122 -19z"/>
<path d="M7640 2000 l0 -420 110 0 110 0 0 420 0 420 -110 0 -110 0 0 -420z"/>
<path d="M8307 2011 c-92 -224 -167 -413 -167 -420 0 -7 34 -11 108 -11 l109
0 38 100 37 100 158 0 158 0 30 -77 c16 -43 32 -88 36 -100 7 -22 12 -23 122
-23 71 0 114 4 114 10 0 6 -73 189 -161 408 -89 218 -163 403 -166 410 -4 9
-39 12 -127 12 l-121 0 -168 -409z m333 59 c22 -57 38 -105 36 -107 -2 -2 -42
-3 -88 -1 l-85 3 36 95 c54 138 53 136 57 125 2 -6 22 -57 44 -115z"/>
<path d="M9100 2000 l0 -420 110 0 110 0 0 150 0 150 133 0 c151 0 210 13 275
59 126 92 137 287 22 402 -73 73 -105 79 -402 79 l-248 0 0 -420z m484 211
c35 -33 36 -92 1 -126 -23 -24 -30 -25 -145 -25 l-120 0 0 91 0 91 119 -4
c110 -3 121 -5 145 -27z"/>
<path d="M9920 2000 l0 -420 110 0 110 0 0 150 0 150 133 0 c151 0 210 13 275
59 126 92 137 287 22 402 -73 73 -105 79 -402 79 l-248 0 0 -420z m484 211
c35 -33 36 -92 1 -126 -23 -24 -30 -25 -145 -25 l-120 0 0 91 0 91 119 -4
c110 -3 121 -5 145 -27z"/>
<path d="M4385 1358 c-3 -8 -4 -75 -3 -149 l3 -134 100 0 c87 0 100 2 103 18
3 15 -6 17 -77 17 l-80 0 -3 127 c-3 113 -5 128 -21 131 -9 2 -19 -3 -22 -10z"/>
<path d="M4721 1353 c-29 -57 -111 -266 -106 -274 12 -18 26 -8 47 36 l22 45
63 0 62 0 20 -45 c18 -41 51 -62 51 -33 0 16 -100 258 -113 276 -14 17 -35 15
-46 -5z m69 -150 c0 -2 -21 -3 -46 -3 -25 0 -44 4 -42 8 2 4 12 31 22 60 l20
52 23 -57 c13 -31 23 -58 23 -60z"/>
<path d="M4995 1357 c-3 -7 -4 -74 -3 -148 l3 -134 105 0 c92 0 105 2 108 18
3 15 -6 17 -82 17 l-86 0 0 45 0 45 55 0 c48 0 55 2 55 20 0 18 -7 20 -55 20
l-55 0 0 45 0 44 83 3 c65 2 82 6 82 18 0 21 -203 28 -210 7z"/>
<path d="M5245 1357 c-3 -7 -4 -74 -3 -148 3 -126 4 -134 23 -134 18 0 20 8
23 63 l3 62 54 0 c48 0 55 2 55 20 0 18 -7 20 -55 20 l-55 0 0 45 0 44 83 3
c65 2 82 6 82 18 0 21 -203 28 -210 7z"/>
<path d="M5485 1358 c-3 -8 -4 -75 -3 -149 3 -126 4 -134 23 -134 19 0 20 7
20 145 0 130 -2 145 -18 148 -9 2 -19 -3 -22 -10z"/>
<path d="M5643 1349 c-44 -22 -83 -82 -83 -129 0 -71 78 -150 148 -150 62 0
132 41 111 66 -8 10 -17 9 -42 -7 -38 -23 -78 -24 -117 -4 -37 19 -50 43 -50
95 0 52 13 76 50 95 39 20 79 19 117 -4 25 -16 34 -17 42 -7 13 16 -9 39 -52
55 -42 16 -77 13 -124 -10z"/>
<path d="M5951 1353 c-29 -57 -111 -266 -106 -274 12 -18 26 -8 47 36 l22 45
63 0 62 0 20 -45 c18 -41 51 -62 51 -33 0 16 -100 258 -113 276 -14 17 -35 15
-46 -5z m69 -150 c0 -2 -21 -3 -46 -3 -25 0 -44 4 -42 8 2 4 12 31 22 60 l20
52 23 -57 c13 -31 23 -58 23 -60z"/>
<path d="M6193 1349 c-44 -22 -83 -82 -83 -129 0 -71 78 -150 148 -150 62 0
132 41 111 66 -8 10 -17 9 -42 -7 -38 -23 -78 -24 -117 -4 -37 19 -50 43 -50
95 0 52 13 76 50 95 39 20 79 19 117 -4 25 -16 34 -17 42 -7 13 16 -9 39 -52
55 -42 16 -77 13 -124 -10z"/>
<path d="M6415 1358 c-3 -8 -4 -75 -3 -149 3 -126 4 -134 23 -134 19 0 20 7
20 145 0 130 -2 145 -18 148 -9 2 -19 -3 -22 -10z"/>
<path d="M6591 1353 c-29 -57 -111 -266 -106 -274 12 -18 26 -8 47 36 l22 45
63 0 62 0 20 -45 c18 -41 51 -62 51 -33 0 16 -100 258 -113 276 -14 17 -35 15
-46 -5z m69 -150 c0 -2 -21 -3 -46 -3 -25 0 -44 4 -42 8 2 4 12 31 22 60 l20
52 23 -57 c13 -31 23 -58 23 -60z"/>
<path d="M6865 1358 c-3 -8 -4 -75 -3 -149 l3 -134 71 1 c115 0 178 51 178
144 0 89 -59 139 -175 148 -54 4 -70 2 -74 -10z m178 -68 c20 -22 27 -41 27
-70 0 -60 -39 -99 -107 -107 l-53 -6 0 113 0 113 53 -6 c41 -5 58 -13 80 -37z"/>
<path d="M7155 1357 c-3 -7 -4 -74 -3 -148 l3 -134 105 0 c92 0 105 2 108 18
3 15 -6 17 -82 17 l-86 0 0 45 0 45 55 0 c48 0 55 2 55 20 0 18 -7 20 -55 20
l-55 0 0 45 0 44 83 3 c65 2 82 6 82 18 0 21 -203 28 -210 7z"/>
<path d="M7395 1358 c-3 -8 -4 -75 -3 -149 l3 -134 100 0 c87 0 100 2 103 18
3 15 -6 17 -77 17 l-80 0 -3 127 c-3 113 -5 128 -21 131 -9 2 -19 -3 -22 -10z"/>
<path d="M7725 1358 c-3 -8 -4 -75 -3 -149 l3 -134 71 1 c115 0 178 51 178
144 0 89 -59 139 -175 148 -54 4 -70 2 -74 -10z m178 -68 c20 -22 27 -41 27
-70 0 -60 -39 -99 -107 -107 l-53 -6 0 113 0 113 53 -6 c41 -5 58 -13 80 -37z"/>
<path d="M8015 1358 c-3 -8 -4 -75 -3 -149 3 -126 4 -134 23 -134 19 0 20 7
20 145 0 130 -2 145 -18 148 -9 2 -19 -3 -22 -10z"/>
<path d="M8104 1357 c-2 -7 -3 -74 -2 -148 3 -126 4 -134 23 -134 18 0 20 8
25 105 l5 105 79 -108 c106 -146 111 -144 111 43 0 138 -1 145 -20 145 -19 0
-20 -8 -23 -104 l-3 -103 -80 106 c-75 100 -103 123 -115 93z"/>
<path d="M8395 1357 c-3 -7 -4 -74 -3 -148 l3 -134 105 0 c92 0 105 2 108 18
3 15 -6 17 -82 17 l-86 0 0 45 0 45 55 0 c48 0 55 2 55 20 0 18 -7 20 -55 20
l-55 0 0 45 0 44 83 3 c65 2 82 6 82 18 0 21 -203 28 -210 7z"/>
<path d="M8644 1357 c-2 -7 -3 -74 -2 -148 3 -126 4 -134 23 -134 17 0 20 8
23 58 l3 57 39 0 c38 0 41 -2 70 -60 28 -55 46 -71 63 -54 3 4 -7 33 -23 65
-28 55 -29 59 -11 68 10 6 24 24 31 41 17 42 -2 88 -46 106 -43 18 -163 19
-170 1z m157 -37 c12 -7 19 -21 19 -40 0 -36 -23 -50 -84 -50 l-46 0 0 50 0
50 46 0 c25 0 54 -5 65 -10z"/>
<path d="M8957 1348 c-39 -23 -77 -86 -77 -128 0 -45 38 -105 81 -129 108 -61
233 27 216 152 -14 104 -127 158 -220 105z m145 -47 c29 -26 33 -35 33 -81 0
-46 -4 -55 -33 -81 -37 -33 -77 -37 -122 -14 -37 19 -50 43 -50 95 0 51 12 75
48 94 44 24 88 20 124 -13z"/>
</g>
</svg>
